Coordinates
version=1
nRows=12
nColumns=24
inDegrees=yes

Units are S.I. units (second, meters, Newtons, ...)
Angles are in degrees.

endheader
time	pelvis_tilt	pelvis_list	pelvis_rotation	pelvis_tx	pelvis_ty	pelvis_tz	hip_flexion_r	hip_adduction_r	hip_rotation_r	knee_angle_r	ankle_angle_r	subtalar_angle_r	mtp_angle_r	hip_flexion_l	hip_adduction_l	hip_rotation_l	knee_angle_l	ankle_angle_l	subtalar_angle_l	mtp_angle_l	lumbar_extension	lumbar_bending	lumbar_rotation
      0.62000000	     -3.00821237	      9.11516065	      1.96877826	     -0.81836724	      0.96734769	      0.30207824	     32.21786970	    -11.47807610	     -0.21495970	     -1.98074524	      1.36572543	     -4.83580946	      0.66740940	    -19.03655189	     11.40586403	     11.91422192	      0.69250790	     11.82897393	     -9.01566714	      0.41514911	    -10.10320874	     -2.55170734	     -8.38191217
      0.62416667	     -3.06179065	      9.01883092	      2.00873092	     -0.81250608	      0.96666855	      0.30272822	     32.32392342	    -11.35999508	      0.18933577	     -2.66887481	      1.18193414	     -5.27229487	      0.81894967	    -19.16028187	     11.27055620	     11.88108406	      0.32927760	     11.84469338	     -9.00424339	      0.43492219	    -10.02878844	     -2.37415540	     -8.41630008
      0.62833333	     -3.08730696	      8.90026584	      2.06180811	     -0.80658379	      0.96608560	      0.30336342	     32.36089285	    -11.22542503	      0.54676418	     -3.30682944	      0.78732334	     -5.87015938	      1.16717940	    -19.28767869	     11.10967622	     11.78637594	     -0.08822034	     11.90382734	     -8.90554202	      0.50451180	     -9.96093991	     -2.18263938	     -8.37705040
      0.63250000	     -3.10870050	      8.79294908	      2.08128502	     -0.80060137	      0.96549264	      0.30401493	     32.45694026	    -11.08748970	      0.82656199	     -4.09052014	      0.60033083	     -6.17432779	      1.24768860	    -19.43522292	     10.97002173	     11.74294049	     -0.47297719	     11.90203982	     -8.93942696	      0.52583857	     -9.87937992	     -2.00141735	     -8.36725475
      0.63666667	     -3.19558300	      8.68470403	      2.12352520	     -0.79461131	      0.96487972	      0.30470604	     32.56531594	    -10.94440467	      1.21024424	     -4.76528826	      0.16379594	     -6.75581026	      1.39804399	    -19.48001557	     10.82606714	     11.68700914	     -0.92373165	     11.88112759	     -8.88258447	      0.58191387	     -9.74830045	     -1.81444008	     -8.33732857
      0.64083333	     -3.23978706	      8.56076326	      2.15569309	     -0.78855668	      0.96434830	      0.30538207	     32.63642469	    -10.78634831	      1.49250559	     -5.47147277	     -0.27956612	     -7.23971826	      1.54504703	    -19.55954185	     10.67055585	     11.58891207	     -1.40045467	     11.86096342	     -8.84872380	      0.65198095	     -9.64484066	     -1.60295954	     -8.30071037
      0.64500000	     -3.28787816	      8.44716754	      2.19850102	     -0.78247056	      0.96385075	      0.30606654	     32.71562876	    -10.64133302	      1.72458897	     -6.19165970	     -0.79544166	     -7.72610886	      1.72632493	    -19.62585735	     10.52022330	     11.52517463	     -1.89211590	     11.83035269	     -8.77012580	      0.75927826	     -9.53347536	     -1.42355336	     -8.26408742
      0.64916667	     -3.33378720	      8.32192362	      2.23848039	     -0.77635179	      0.96338824	      0.30676482	     32.78728068	    -10.48203105	      1.93121266	     -6.90835606	     -1.32437700	     -8.19687097	      1.95276244	    -19.67293513	     10.36181062	     11.41332429	     -2.42649904	     11.78161147	     -8.70089095	      0.92278716	     -9.43473617	     -1.22459084	     -8.22516078
      0.65333333	     -3.40366049	      8.18505367	      2.26304624	     -0.77018933	      0.96291293	      0.30747014	     32.89625078	    -10.30603777	      2.09050928	     -7.64337666	     -1.85845831	     -8.50533397	      2.06127574	    -19.68259755	     10.20192371	     11.30542841	     -2.98405085	     11.65711935	     -8.73430345	      1.01963540	     -9.30255472	     -0.99231981	     -8.18955992
      0.65750000	     -3.45891394	      8.06826343	      2.29965163	     -0.76401120	      0.96248384	      0.30819919	     32.99607015	    -10.15263663	      2.21550895	     -8.38883495	     -2.48129197	     -8.95802011	      4.33423286	    -19.66935295	     10.05498221	     11.07280126	     -3.61203780	     11.58451723	     -8.49042749	      3.33496784	     -9.18279035	     -0.81662762	     -8.12429102
      0.66166667	     -3.51636739	      7.91803190	      2.32531987	     -0.75777316	      0.96209356	      0.30893260	     33.08217483	     -9.96081688	      2.32857054	     -9.11120848	     -3.10212824	     -9.37798114	      4.34720490	    -19.69126432	      9.87969163	     11.04016817	     -4.16206456	     11.37626699	     -8.65334915	      3.37351322	     -9.04575088	     -0.57209109	     -8.10914906
      0.66583333	     -3.58471720	      7.77167956	      2.34943401	     -0.75151757	      0.96171988	      0.30968203	     33.19160435	     -9.77413134	      2.39920415	     -9.85440187	     -3.71095620	     -9.67541501	      4.35657335	    -19.66403060	      9.71226479	     10.92636996	     -4.78527411	     11.14747005	     -8.71010007	      3.42690136	     -8.90832730	     -0.34068941	     -8.06926288
